<?xml version="1.0" encoding="UTF-8"?> <svg xmlns="http://www.w3.org/2000/svg" width="24" height="24" viewBox="0 0 24 24" fill="none"> <path d="M12 10V14H14M4.5 13.5C4.5 14.9834 4.93987 16.4334 5.76398 17.6668C6.58809 18.9001 7.75943 19.8614 9.12987 20.4291C10.5003 20.9968 12.0083 21.1453 13.4632 20.8559C14.918 20.5665 16.2544 19.8522 17.3033 18.8033C18.3522 17.7544 19.0665 16.418 19.3559 14.9632C19.6453 13.5083 19.4968 12.0003 18.9291 10.6299C18.3614 9.25943 17.4001 8.08809 16.1668 7.26398C14.9334 6.43987 13.4834 6 12 6C10.0109 6 8.10322 6.79018 6.6967 8.1967C5.29018 9.60322 4.5 11.5109 4.5 13.5V13.5ZM12 6V3V6ZM9 3H15H9Z" stroke="#1C3388" stroke-width="2" stroke-linecap="round" stroke-linejoin="round"></path> </svg> 